<svg
  xmlns="http://www.w3.org/2000/svg"
  width="1200"
  height="800"
  viewBox="0 0 1200 800"
  fill="none"
>
  <g stroke="#D6FF6A" stroke-opacity="0.12" stroke-width="1.25">
    <path d="M-80 110C140 10 320 10 520 120C720 230 920 220 1280 70" />
    <path d="M-120 200C80 90 280 70 500 170C720 270 900 270 1260 160" />
    <path d="M-80 300C120 180 320 160 520 250C720 340 920 360 1280 260" />
    <path d="M-160 390C40 280 260 250 500 340C740 430 900 460 1260 360" />
    <path d="M-120 490C60 380 260 340 500 430C740 520 940 540 1280 470" />
    <path d="M-80 580C140 480 340 450 560 540C780 630 960 650 1280 590" />
    <path d="M-140 660C60 560 260 520 500 610C740 700 920 720 1260 660" />
    <path d="M140 0C120 160 220 280 380 360C540 440 600 540 560 800" />
    <path d="M320 0C260 180 360 270 520 350C680 430 760 560 700 800" />
    <path d="M520 0C460 200 580 280 740 340C900 400 980 560 920 800" />
    <path d="M720 0C640 200 760 280 920 330C1080 380 1140 540 1100 800" />
  </g>
</svg>
